<?xml version="1.0" standalone="no"?><!DOCTYPE svg PUBLIC "-//W3C//DTD SVG 1.1//EN" "http://www.w3.org/Graphics/SVG/1.1/DTD/svg11.dtd"><svg xmlns:xlink="http://www.w3.org/1999/xlink" version="1.1" style="font-family:'lucida grande', 'lucida sans unicode', arial, helvetica, sans-serif;font-size:12px;" xmlns="http://www.w3.org/2000/svg" width="600" height="400"><desc>Created with Highcharts 4.2.7</desc><defs><linearGradient x1="0" y1="0" x2="0" y2="1" id="highcharts-223"><stop offset="0" stop-color="rgb(96,96,96)" stop-opacity="0.8"></stop><stop offset="1" stop-color="rgb(16,16,16)" stop-opacity="0.8"></stop></linearGradient><clipPath id="highcharts-224"><rect x="1" y="1" width="578" height="332"></rect></clipPath></defs><rect x="10" y="10" width="580" height="334" fill="#ffffff"></rect><rect x="10" y="10" width="580" height="334" stroke="#ffffff" stroke-width="2" fill="none"></rect><g class="highcharts-series-group"><g class="highcharts-series highcharts-series-0" transform="translate(10,10) scale(1 1)"><path fill="#50B432" d="M 289.9718930978901 41.00000286231142 A 138 138 0 0 1 302.78752208056505 41.59374366849573 L 290 179 A 0 0 0 0 0 290 179 Z" stroke="#FFFFFF" stroke-width="1" stroke-linejoin="round" transform="translate(0,0)"></path><path fill="#ED561B" d="M 302.924921920235 41.60659989156747 A 138 138 0 0 1 332.4654257098598 47.696201047797615 L 290 179 A 0 0 0 0 0 290 179 Z" stroke="#FFFFFF" stroke-width="1" stroke-linejoin="round" transform="translate(0,0)"></path><path fill="#DDDF00" d="M 332.59670825421694 47.738732118323924 A 138 138 0 0 1 374.4788411487998 69.87930811181664 L 290 179 A 0 0 0 0 0 290 179 Z" stroke="#FFFFFF" stroke-width="1" stroke-linejoin="round" transform="translate(0,0)"></path><path fill="#243077" d="M 374.58791958308416 69.96384149922704 A 138 138 0 0 1 424.52158677551415 209.78867797418087 L 290 179 A 0 0 0 0 0 290 179 Z" stroke="#FFFFFF" stroke-width="1" stroke-linejoin="round" transform="translate(0,0)"></path><path fill="#982961" d="M 424.49073084188365 209.92318414419842 A 138 138 0 0 1 253.2969851659607 312.02965346903784 L 290 179 A 0 0 0 0 0 290 179 Z" stroke="#FFFFFF" stroke-width="1" stroke-linejoin="round" transform="translate(0,0)"></path><path fill="#FF9655" d="M 253.16397388616917 311.9928839454998 A 138 138 0 0 1 289.80832076854614 41.00013311936772 L 290 179 A 0 0 0 0 0 290 179 Z" stroke="#FFFFFF" stroke-width="1" stroke-linejoin="round" transform="translate(0,0)"></path></g><g class="highcharts-markers highcharts-series-0" transform="translate(10,10) scale(1 1)"></g></g><g class="highcharts-data-labels highcharts-series-0" transform="translate(10,10) scale(1 1)" opacity="1"><path fill="none" d="M 302.9138837192194 11 C 297.9138837192194 11 297.53703211354286 19.177620006084794 297.0188611557368 30.165408630666462 L 296.5006901979307 41.15319725524813" stroke="#50B432" stroke-width="1"></path><path fill="none" d="M 376.33265027035577 32 C 371.33265027035577 32 322.445967257042 22.324350300517466 320.21530700812036 33.09580121735689 L 317.9846467591987 43.86725213419632" stroke="#ED561B" stroke-width="1"></path><path fill="none" d="M 406.1215550647128 53 C 401.1215550647128 53 364.8687702816917 37.59749918580904 359.7215423248254 47.31892111678467 L 354.5743143679591 57.0403430477603" stroke="#DDDF00" stroke-width="1"></path><path fill="none" d="M 453.2459705190768 122.58889458204648 C 448.2459705190768 122.58889458204648 440.71044811340647 125.27513769718712 430.3491048056098 128.9687219805055 L 419.9877614978131 132.6623062638239" stroke="#243077" stroke-width="1"></path><path fill="none" d="M 380.9728240192099 323.3352816540778 C 375.9728240192099 323.3352816540778 371.8788800182952 316.4621730038836 366.2497070170374 307.0116486098666 L 360.6205340157796 297.5611242158496" stroke="#982961" stroke-width="1"></path><path fill="none" d="M 118.53057773864711 156.37409776447836 C 123.53057773864711 156.37409776447836 131.45769308442584 157.45152168045558 142.35747668487156 158.93297956492427 L 153.25726028531727 160.41443744939295" stroke="#FF9655" stroke-width="1"></path><g style="cursor:pointer;" transform="translate(308,1)"><text x="5" style="font-size:10px;font-weight:bold;font-family:'arial', sans-serif;color:#000;text-shadow:none;fill:#000;text-rendering:geometricprecision;" y="15"><tspan>1.5%</tspan></text></g><g style="cursor:pointer;" transform="translate(381,22)"><text x="5" style="font-size:10px;font-weight:bold;font-family:'arial', sans-serif;color:#000;text-shadow:none;fill:#000;text-rendering:geometricprecision;" y="15"><tspan>3.5%</tspan></text></g><g style="cursor:pointer;" transform="translate(411,43)"><text x="5" style="font-size:10px;font-weight:bold;font-family:'arial', sans-serif;color:#000;text-shadow:none;fill:#000;text-rendering:geometricprecision;" y="15"><tspan>5.5%</tspan></text></g><g style="cursor:pointer;" transform="translate(458,113)"><text x="5" style="font-size:10px;font-weight:bold;font-family:'arial', sans-serif;color:#000;text-shadow:none;fill:#000;text-rendering:geometricprecision;" y="15"><tspan>18.1%</tspan></text></g><g style="cursor:pointer;" transform="translate(386,313)"><text x="5" style="font-size:10px;font-weight:bold;font-family:'arial', sans-serif;color:#000;text-shadow:none;fill:#000;text-rendering:geometricprecision;" y="15"><tspan>25.7%</tspan></text></g><g style="cursor:pointer;" transform="translate(75,146)"><text x="5" style="font-size:10px;font-weight:bold;font-family:'arial', sans-serif;color:#000;text-shadow:none;fill:#000;text-rendering:geometricprecision;" y="15"><tspan>45.7%</tspan></text></g></g><g class="highcharts-legend" transform="translate(58,356)"><g><g><g class="highcharts-legend-item" transform="translate(8,3)"><text x="21" style="color:#333;font-size:9pt;font-weight:normal;cursor:pointer;font-family:'lucida grande','lucida sans unicode',arial,helvetica,sans-serif;text-transform:none;fill:#333;" text-anchor="start" y="15">0</text><rect x="0" y="4" width="16" height="12" fill="#50B432"></rect></g><g class="highcharts-legend-item" transform="translate(56.59999990463257,3)"><text x="21" y="15" style="color:#333;font-size:9pt;font-weight:normal;cursor:pointer;font-family:'lucida grande','lucida sans unicode',arial,helvetica,sans-serif;text-transform:none;fill:#333;" text-anchor="start"><tspan>30 sec</tspan></text><rect x="0" y="4" width="16" height="12" fill="#ED561B"></rect></g><g class="highcharts-legend-item" transform="translate(135.77539205551147,3)"><text x="21" y="15" style="color:#333;font-size:9pt;font-weight:normal;cursor:pointer;font-family:'lucida grande','lucida sans unicode',arial,helvetica,sans-serif;text-transform:none;fill:#333;" text-anchor="start"><tspan>1 min</tspan></text><rect x="0" y="4" width="16" height="12" fill="#DDDF00"></rect></g><g class="highcharts-legend-item" transform="translate(210.28789281845093,3)"><text x="21" y="15" style="color:#333;font-size:9pt;font-weight:normal;cursor:pointer;font-family:'lucida grande','lucida sans unicode',arial,helvetica,sans-serif;text-transform:none;fill:#333;" text-anchor="start"><tspan>3-4 mins</tspan></text><rect x="0" y="4" width="16" height="12" fill="#243077"></rect></g><g class="highcharts-legend-item" transform="translate(305.4503951072693,3)"><text x="21" y="15" style="color:#333;font-size:9pt;font-weight:normal;cursor:pointer;font-family:'lucida grande','lucida sans unicode',arial,helvetica,sans-serif;text-transform:none;fill:#333;" text-anchor="start"><tspan>1-2 mins</tspan></text><rect x="0" y="4" width="16" height="12" fill="#982961"></rect></g><g class="highcharts-legend-item" transform="translate(400.61289739608765,3)"><text x="21" y="15" style="color:#333;font-size:9pt;font-weight:normal;cursor:pointer;font-family:'lucida grande','lucida sans unicode',arial,helvetica,sans-serif;text-transform:none;fill:#333;" text-anchor="start"><tspan>2-3 mins</tspan></text><rect x="0" y="4" width="16" height="12" fill="#FF9655"></rect></g></g></g></g><g class="highcharts-tooltip" display="none" style="cursor:default;padding:0;pointer-events:none;white-space:nowrap;" transform="translate(0,0)"><path fill="none" d="M 3 0 L 13 0 C 16 0 16 0 16 3 L 16 13 C 16 16 16 16 13 16 L 3 16 C 0 16 0 16 0 13 L 0 3 C 0 0 0 0 3 0"  stroke="black" stroke-opacity="0.049999999999999996" stroke-width="5" transform="translate(1, 1)"></path><path fill="none" d="M 3 0 L 13 0 C 16 0 16 0 16 3 L 16 13 C 16 16 16 16 13 16 L 3 16 C 0 16 0 16 0 13 L 0 3 C 0 0 0 0 3 0"  stroke="black" stroke-opacity="0.09999999999999999" stroke-width="3" transform="translate(1, 1)"></path><path fill="none" d="M 3 0 L 13 0 C 16 0 16 0 16 3 L 16 13 C 16 16 16 16 13 16 L 3 16 C 0 16 0 16 0 13 L 0 3 C 0 0 0 0 3 0"  stroke="black" stroke-opacity="0.15" stroke-width="1" transform="translate(1, 1)"></path><path fill="url(#highcharts-223)" d="M 3 0 L 13 0 C 16 0 16 0 16 3 L 16 13 C 16 16 16 16 13 16 L 3 16 C 0 16 0 16 0 13 L 0 3 C 0 0 0 0 3 0"></path><text x="8" style="font-size:12px;color:#000000;fill:#000000;" y="20"></text></g><text x="590" text-anchor="end" style="cursor:pointer;color:#666;font-size:9px;fill:#666;" y="395">meta-chart.com</text></svg>