<?xml version="1.0" standalone="no"?><!DOCTYPE svg PUBLIC "-//W3C//DTD SVG 1.1//EN" "http://www.w3.org/Graphics/SVG/1.1/DTD/svg11.dtd"><svg xmlns:xlink="http://www.w3.org/1999/xlink" version="1.1" style="font-family:'lucida grande', 'lucida sans unicode', arial, helvetica, sans-serif;font-size:12px;" xmlns="http://www.w3.org/2000/svg" width="600" height="400"><desc>Created with Highcharts 4.2.7</desc><defs><linearGradient x1="0" y1="0" x2="0" y2="1" id="highcharts-183"><stop offset="0" stop-color="rgb(96,96,96)" stop-opacity="0.8"></stop><stop offset="1" stop-color="rgb(16,16,16)" stop-opacity="0.8"></stop></linearGradient><clipPath id="highcharts-184"><rect x="1" y="1" width="578" height="332"></rect></clipPath></defs><rect x="10" y="10" width="580" height="334" fill="#ffffff"></rect><rect x="10" y="10" width="580" height="334" stroke="#ffffff" stroke-width="2" fill="none"></rect><g class="highcharts-series-group"><g class="highcharts-series highcharts-series-0" transform="translate(10,10) scale(1 1)"><path fill="#50B432" d="M 289.9710784050753 19.000002945276975 A 142 142 0 0 1 410.68586251831607 86.1740513711312 L 290 161 A 0 0 0 0 0 290 161 Z" stroke="#FFFFFF" stroke-width="1" stroke-linejoin="round" transform="translate(0,0)"></path><path fill="#ED561B" d="M 410.7606281115477 86.29477462650641 A 142 142 0 0 1 417.1131189914761 224.29498384752813 L 290 161 A 0 0 0 0 0 290 161 Z" stroke="#FFFFFF" stroke-width="1" stroke-linejoin="round" transform="translate(0,0)"></path><path fill="#dcd21e" d="M 417.04976046162346 224.4220652978448 A 142 142 0 0 1 228.46467829470876 288.9742324947734 L 290 161 A 0 0 0 0 0 290 161 Z" stroke="#FFFFFF" stroke-width="1" stroke-linejoin="round" transform="translate(0,0)"></path><path fill="#2d4799" d="M 228.33673485120133 288.91263319621305 A 142 142 0 0 1 289.80276484879386 19.000136977900127 L 290 161 A 0 0 0 0 0 290 161 Z" stroke="#FFFFFF" stroke-width="1" stroke-linejoin="round" transform="translate(0,0)"></path></g><g class="highcharts-markers highcharts-series-0" transform="translate(10,10) scale(1 1)"></g></g><g class="highcharts-data-labels highcharts-series-0" transform="translate(10,10) scale(1 1)" opacity="1"><path fill="none" d="M 378.73064409225987 10.756267219243675 C 373.73064409225987 10.756267219243675 369.83619552982924 17.74434781369746 364.481328756487 27.35295863107141 L 359.1264619831448 36.96156944844536" stroke="#50B432" stroke-width="1"></path><path fill="none" d="M 466.82192986210237 153.1753965938986 C 461.82192986210237 153.1753965938986 453.8302121940976 153.53933163604285 442.84160040059106 154.0397423189912 L 431.8529886070845 154.54015300193953" stroke="#ED561B" stroke-width="1"></path><path fill="none" d="M 350.6601683309829 323.7450326780103 C 345.6601683309829 323.7450326780103 343.07132329233247 316.17549627438194 339.5116613641882 305.7673837193929 L 335.951999436044 295.3592711644039" stroke="#dcd21e" stroke-width="1"></path><path fill="none" d="M 117.31239910472632 122.72639935951395 C 122.31239910472632 122.72639935951395 130.1118224021809 124.50656683116446 140.83602943618098 126.95429710468392 L 151.56023647018105 129.40202737820337" stroke="#2d4799" stroke-width="1"></path><g style="cursor:pointer;" transform="translate(384,1)"><text x="5" style="font-size:10px;font-weight:bold;font-family:'arial', sans-serif;color:#000;text-shadow:none;fill:#000;text-rendering:geometricprecision;" y="15"><tspan>16.2%</tspan></text></g><g style="cursor:pointer;" transform="translate(472,143)"><text x="5" style="font-size:10px;font-weight:bold;font-family:'arial', sans-serif;color:#000;text-shadow:none;fill:#000;text-rendering:geometricprecision;" y="15"><tspan>16.2%</tspan></text></g><g style="cursor:pointer;" transform="translate(356,314)"><text x="5" style="font-size:10px;font-weight:bold;font-family:'arial', sans-serif;color:#000;text-shadow:none;fill:#000;text-rendering:geometricprecision;" y="15"><tspan>24.8%</tspan></text></g><g style="cursor:pointer;" transform="translate(74,113)"><text x="5" style="font-size:10px;font-weight:bold;font-family:'arial', sans-serif;color:#000;text-shadow:none;fill:#000;text-rendering:geometricprecision;" y="15"><tspan>42.9%</tspan></text></g></g><g class="highcharts-legend" transform="translate(112,356)"><g><g><g class="highcharts-legend-item" transform="translate(8,3)"><text x="21" style="color:#333;font-size:9pt;font-weight:normal;cursor:pointer;font-family:'lucida grande','lucida sans unicode',arial,helvetica,sans-serif;text-transform:none;fill:#333;" text-anchor="start" y="15"><tspan>3-5 mins</tspan></text><rect x="0" y="4" width="16" height="12" fill="#50B432"></rect></g><g class="highcharts-legend-item" transform="translate(103.16250228881836,3)"><text x="21" y="15" style="color:#333;font-size:9pt;font-weight:normal;cursor:pointer;font-family:'lucida grande','lucida sans unicode',arial,helvetica,sans-serif;text-transform:none;fill:#333;" text-anchor="start"><tspan>5-7 mins</tspan></text><rect x="0" y="4" width="16" height="12" fill="#ED561B"></rect></g><g class="highcharts-legend-item" transform="translate(198.32500457763672,3)"><text x="21" y="15" style="color:#333;font-size:9pt;font-weight:normal;cursor:pointer;font-family:'lucida grande','lucida sans unicode',arial,helvetica,sans-serif;text-transform:none;fill:#333;" text-anchor="start"><tspan>7-9 mins</tspan></text><rect x="0" y="4" width="16" height="12" fill="#dcd21e"></rect></g><g class="highcharts-legend-item" transform="translate(293.4875068664551,3)"><text x="21" y="15" style="color:#333;font-size:9pt;font-weight:normal;cursor:pointer;font-family:'lucida grande','lucida sans unicode',arial,helvetica,sans-serif;text-transform:none;fill:#333;" text-anchor="start"><tspan>1-3 mins</tspan></text><rect x="0" y="4" width="16" height="12" fill="#2d4799"></rect></g></g></g></g><g class="highcharts-tooltip" display="none" style="cursor:default;padding:0;pointer-events:none;white-space:nowrap;" transform="translate(0,0)"><path fill="none" d="M 3 0 L 13 0 C 16 0 16 0 16 3 L 16 13 C 16 16 16 16 13 16 L 3 16 C 0 16 0 16 0 13 L 0 3 C 0 0 0 0 3 0"  stroke="black" stroke-opacity="0.049999999999999996" stroke-width="5" transform="translate(1, 1)"></path><path fill="none" d="M 3 0 L 13 0 C 16 0 16 0 16 3 L 16 13 C 16 16 16 16 13 16 L 3 16 C 0 16 0 16 0 13 L 0 3 C 0 0 0 0 3 0"  stroke="black" stroke-opacity="0.09999999999999999" stroke-width="3" transform="translate(1, 1)"></path><path fill="none" d="M 3 0 L 13 0 C 16 0 16 0 16 3 L 16 13 C 16 16 16 16 13 16 L 3 16 C 0 16 0 16 0 13 L 0 3 C 0 0 0 0 3 0"  stroke="black" stroke-opacity="0.15" stroke-width="1" transform="translate(1, 1)"></path><path fill="url(#highcharts-183)" d="M 3 0 L 13 0 C 16 0 16 0 16 3 L 16 13 C 16 16 16 16 13 16 L 3 16 C 0 16 0 16 0 13 L 0 3 C 0 0 0 0 3 0"></path><text x="8" style="font-size:12px;color:#000000;fill:#000000;" y="20"></text></g><text x="590" text-anchor="end" style="cursor:pointer;color:#666;font-size:9px;fill:#666;" y="395">meta-chart.com</text></svg>